<svg width="314" height="207" viewBox="0 0 314 207" fill="none" xmlns="http://www.w3.org/2000/svg">
<g filter="url(#filter0_d_2417_32)">
<mask id="path-1-inside-1_2417_32" fill="white">
<path d="M175 5C186.046 5 195 13.9543 195 25V38H285C296.046 38 305 46.9543 305 58V178C305 189.046 296.046 198 285 198H25C13.9543 198 5 189.046 5 178V25C5 13.9543 13.9543 5 25 5H175Z"/>
</mask>
<path d="M175 5C186.046 5 195 13.9543 195 25V38H285C296.046 38 305 46.9543 305 58V178C305 189.046 296.046 198 285 198H25C13.9543 198 5 189.046 5 178V25C5 13.9543 13.9543 5 25 5H175Z" fill="#D4F1FF"/>
<path d="M195 38H194V39H195V38ZM285 198L285 199H285L285 198ZM175 5V6C185.493 6 194 14.5066 194 25H195H196C196 13.402 186.598 4 175 4V5ZM195 25H194V38H195H196V25H195ZM195 38V39H285V38V37H195V38ZM285 38V39C295.493 39 304 47.5066 304 58H305H306C306 46.402 296.598 37 285 37V38ZM305 58H304V178H305H306V58H305ZM305 178H304C304 188.493 295.493 197 285 197L285 198L285 199C296.598 199 306 189.598 306 178H305ZM285 198V197H25V198V199H285V198ZM25 198V197C14.5066 197 6 188.493 6 178H5H4C4 189.598 13.402 199 25 199V198ZM5 178H6V25H5H4V178H5ZM5 25H6C6 14.5066 14.5066 6 25 6V5V4C13.402 4 4 13.402 4 25H5ZM25 5V6H175V5V4H25V5Z" fill="#9E9E9E" mask="url(#path-1-inside-1_2417_32)"/>
</g>
<defs>
<filter id="filter0_d_2417_32" x="0" y="0" width="314" height="207" filterUnits="userSpaceOnUse" color-interpolation-filters="sRGB">
<feFlood flood-opacity="0" result="BackgroundImageFix"/>
<feColorMatrix in="SourceAlpha" type="matrix" values="0 0 0 0 0 0 0 0 0 0 0 0 0 0 0 0 0 0 127 0" result="hardAlpha"/>
<feOffset dx="2" dy="2"/>
<feGaussianBlur stdDeviation="3.5"/>
<feComposite in2="hardAlpha" operator="out"/>
<feColorMatrix type="matrix" values="0 0 0 0 0 0 0 0 0 0 0 0 0 0 0 0 0 0 0.25 0"/>
<feBlend mode="normal" in2="BackgroundImageFix" result="effect1_dropShadow_2417_32"/>
<feBlend mode="normal" in="SourceGraphic" in2="effect1_dropShadow_2417_32" result="shape"/>
</filter>
</defs>
</svg>
