<svg width="1133" height="744" viewBox="0 0 1133 744" fill="none" xmlns="http://www.w3.org/2000/svg">
<g clip-path="url(#clip0_648_1392)">
<rect width="744" height="1133" transform="matrix(0 1 -1 0 1133 0)" fill="#1C376B"/>
<path d="M544.641 152.156C550.109 152.156 554.367 155.75 554.406 160.867C554.367 165.164 551.379 168.387 547.18 169.305V174.148C549.992 174.031 552.785 173.797 555.422 173.445L555.773 177.117C548.352 178.523 540.344 178.523 534.289 178.445L533.625 174.422C536.184 174.402 539.133 174.402 542.219 174.344V169.344C537.863 168.465 534.875 165.223 534.875 160.867C534.875 155.75 539.016 152.156 544.641 152.156ZM544.641 156.375C541.828 156.375 539.719 158.016 539.758 160.867C539.719 163.68 541.828 165.359 544.641 165.359C547.375 165.359 549.484 163.68 549.484 160.867C549.484 158.016 547.375 156.375 544.641 156.375ZM562.297 150.047V163.992H567.141V168.172H562.297V185.594H557.297V150.047H562.297ZM606.047 150.047V158.797H610.852V162.977H606.047V171.492H601.047V150.047H606.047ZM606.047 173.055V185.203H582.805V173.055H606.047ZM587.727 176.961V181.219H601.125V176.961H587.727ZM598.938 153.25V157.195H577.844V153.25H585.93V149.852H590.891V153.25H598.938ZM588.391 158.289C593.547 158.289 597.141 160.906 597.141 164.656C597.141 168.523 593.547 171.102 588.391 171.102C583.156 171.102 579.562 168.523 579.562 164.656C579.562 160.906 583.156 158.289 588.391 158.289ZM588.391 162.039C586.008 162.039 584.406 162.977 584.445 164.656C584.406 166.453 586.008 167.43 588.391 167.43C590.773 167.43 592.414 166.453 592.414 164.656C592.414 162.977 590.773 162.039 588.391 162.039ZM621.164 154.109C621.125 162.977 620.266 170.945 615.734 177.977L611.867 175.945C615.52 170.418 616.613 165.027 616.867 158.133H613.039V154.109H621.164ZM629.133 154.109C629.113 157.234 629.055 160.34 628.781 163.367H631.828V150.828H636.516V184.031H631.828V167.391H628.273C627.512 171.746 626.164 175.926 623.703 179.773L619.914 177.664C623.879 171.609 624.699 165.34 624.875 158.133H622.18V154.109H629.133ZM643.508 150.047V185.594H638.742V150.047H643.508ZM686.32 150.086V170.672H681.32V169.539H674.875V166.531H681.32V150.086H686.32ZM656.203 162.586C663.078 162.625 671.594 162.547 679.211 161.844L679.445 164.93C676.301 165.359 673.078 165.633 669.914 165.789V170.75H664.992V165.984C662.082 166.062 659.289 166.062 656.711 166.023L656.203 162.586ZM686.32 171.727V180.047H666.32V181.883H687.141V185.359H661.438V176.844H681.359V175.086H661.281V171.727H686.32ZM667.648 150.555C672.922 150.555 676.555 152.703 676.594 155.906C676.555 159.227 672.922 161.219 667.648 161.219C662.219 161.219 658.625 159.227 658.625 155.906C658.625 152.703 662.219 150.555 667.648 150.555ZM667.648 153.836C664.953 153.797 663.312 154.617 663.352 155.906C663.312 157.234 664.953 157.977 667.648 157.977C670.266 157.977 671.945 157.234 671.945 155.906C671.945 154.617 670.266 153.797 667.648 153.836ZM723.312 177.352V181.453H690.773V177.352H698.039V168.641C695.285 167 693.625 164.48 693.625 161.336C693.625 155.594 699.25 151.766 706.984 151.766C714.68 151.766 720.344 155.594 720.383 161.336C720.363 164.402 718.742 166.902 716.086 168.562V177.352H723.312ZM706.984 155.711C701.906 155.711 698.547 157.742 698.547 161.336C698.547 164.812 701.906 166.961 706.984 166.961C712.023 166.961 715.422 164.812 715.461 161.336C715.422 157.742 712.023 155.711 706.984 155.711ZM702.961 177.352H711.047V170.438C709.777 170.691 708.41 170.828 706.984 170.828C705.559 170.828 704.211 170.711 702.961 170.438V177.352ZM735.461 151.102C740.852 151.102 744.953 154.461 744.953 159.227C744.953 163.914 740.852 167.312 735.461 167.312C729.953 167.312 725.891 163.914 725.891 159.227C725.891 154.461 729.953 151.102 735.461 151.102ZM735.461 155.164C732.727 155.164 730.695 156.648 730.734 159.227C730.695 161.766 732.727 163.289 735.461 163.289C738.156 163.289 740.148 161.766 740.148 159.227C740.148 156.648 738.156 155.164 735.461 155.164ZM755.109 150.047V167.859H750.109V150.047H755.109ZM755.109 169.344V178.992H736.203V181.297H756.086V185.203H731.32V175.359H750.148V173.172H731.242V169.344H755.109ZM792.414 170.555V174.461H778.508V185.594H773.586V174.461H759.875V170.555H792.414ZM768.625 151.414V155.516H783.547V151.414H788.547V167.117H763.703V151.414H768.625ZM768.625 163.133H783.547V159.422H768.625V163.133ZM824.484 150.047V185.672H819.562V166.609H813.312V162.586H819.562V150.047H824.484ZM812.727 153.016V157.039H801.086V162.938H811.438V166.844H801.086V173.562C806.008 173.523 809.953 173.348 814.367 172.664L814.875 176.648C809.68 177.43 805.031 177.625 798.938 177.625H796.125V153.016H812.727Z" fill="white"/>
<path d="M238.422 207.086V227.555H233.461V224.078H225.453V220.094H233.461V216.695H225.805C223.598 222.32 218.559 226.188 210.727 228.336L208.773 224.391C216.957 222.242 220.961 218.336 221.664 213.453H210.688V209.469H227.094C227.094 210.621 227.016 211.734 226.859 212.789H233.461V207.086H238.422ZM226.586 227.984C233.812 227.984 238.656 230.758 238.695 235.172C238.656 239.625 233.812 242.438 226.586 242.438C219.281 242.438 214.398 239.625 214.438 235.172C214.398 230.758 219.281 227.984 226.586 227.984ZM226.586 231.891C222.094 231.852 219.398 232.984 219.398 235.172C219.398 237.359 222.094 238.492 226.586 238.492C231 238.492 233.695 237.359 233.695 235.172C233.695 232.984 231 231.852 226.586 231.891ZM273.773 207.047V242.594H269.047V207.047H273.773ZM266.508 207.633V240.953H261.82V223.258H257.133V219.234H261.82V207.633H266.508ZM254.281 216.578C254.281 222.477 256.117 228.453 261.312 231.422L258.383 235.094C255.219 233.219 253.129 230.035 251.938 226.227C250.707 230.367 248.559 233.883 245.297 235.875L242.289 232.203C247.523 229 249.477 222.594 249.477 216.578V214.664H243.656V210.68H259.672V214.664H254.281V216.578ZM315.648 218.258V222.242H290.766V208.648H295.727V218.258H315.648ZM319.242 226.266V230.25H311.82V242.594H306.781V230.25H299.32V242.594H294.32V230.25H286.82V226.266H319.242ZM340.102 211.734C340.102 216.93 344.711 222.516 352.758 223.883L350.57 228.023C344.379 226.793 339.77 223.316 337.484 218.727C335.121 223.277 330.512 226.773 324.359 228.023L322.211 223.883C330.102 222.477 334.75 216.891 334.789 211.734V209.156H340.102V211.734ZM353.93 234.117V238.219H321.391V234.117H353.93ZM363.461 236.109L360.102 247.242H355.961L357.914 236.109H363.461ZM403.578 207.047V216.734H408.383V220.836H403.578V232.75H398.578V207.047H403.578ZM392.797 209.898V213.883H381.742V222.867C388.168 222.828 391.703 222.633 395.688 221.773L396.195 225.758C391.742 226.695 387.641 226.891 379.75 226.891H376.742V209.898H392.797ZM404.867 237.984V241.969H380.531V230.016H385.492V237.984H404.867ZM419.75 209.547C424.555 209.547 428.129 213.512 428.852 219.898H435.023V207.047H439.945V242.672H435.023V223.883H428.891C428.363 230.719 424.711 234.898 419.75 234.898C414.359 234.898 410.492 230.016 410.531 222.203C410.492 214.469 414.359 209.547 419.75 209.547ZM419.75 214.039C417.094 214.039 415.258 216.93 415.297 222.203C415.258 227.516 417.094 230.367 419.75 230.367C422.445 230.367 424.203 227.516 424.203 222.203C424.203 216.93 422.445 214.039 419.75 214.039ZM452.016 236.109L448.656 247.242H444.516L446.469 236.109H452.016ZM484.672 209.352V211.539C484.633 214.449 484.633 218.395 483.578 224.078C484.848 224 486.098 223.902 487.328 223.766L487.68 227.438C484.398 227.906 481.059 228.199 477.758 228.375V240.641H472.758V228.609C469.809 228.707 466.977 228.727 464.32 228.727L463.695 224.703C468.207 224.684 473.383 224.645 478.578 224.391C478.891 222.848 479.125 221.402 479.32 220.055L466.469 221.188L465.805 217.086L479.672 216.5C479.73 215.328 479.77 214.293 479.789 213.336H466.664V209.352H484.672ZM494.398 207.047V242.594H489.359V207.047H494.398ZM531.039 234.234V238.297H498.5V234.234H531.039ZM517.328 214.078C517.328 219.039 521.781 223.727 529.828 224.938L527.875 228.883C521.645 227.789 517.035 224.742 514.75 220.523C512.484 224.82 507.914 227.984 501.781 229.078L499.828 225.094C507.602 223.883 512.094 219.039 512.094 214.078V214.039H501.195V210.055H528.188V214.039H517.328V214.078ZM561.547 207.047V220.992H566.273V225.094H561.547V242.594H556.547V207.047H561.547ZM543.695 210.68C543.656 220.445 542.641 228.062 536.273 235.055L532.367 232.281C537.211 227.047 538.617 221.832 538.93 214.742H533.93V210.68H543.695ZM553.539 210.68C553.539 220.836 552.641 229.625 546.352 237.359L542.406 234.586C547.23 228.648 548.539 222.555 548.852 214.742H544.867V210.68H553.539ZM581.43 216.734C581.43 222.477 584.359 228.609 590.336 231.109L587.641 235.016C583.441 233.238 580.551 229.703 578.969 225.367C577.348 230.074 574.398 233.98 570.219 235.914L567.367 231.969C573.266 229.352 576.312 222.75 576.312 216.734V214.547H568.773V210.484H588.852V214.547H581.43V216.734ZM597.406 207.047V242.594H592.367V207.047H597.406ZM642.25 207.047V242.594H637.484V224.664H634.281V240.953H629.555V207.555H634.281V220.602H637.484V207.047H642.25ZM626.586 210.719V233.648H612.445V210.719H626.586ZM617.094 214.664V229.742H621.938V214.664H617.094ZM656.117 208.102C661.508 208.102 665.609 211.461 665.609 216.227C665.609 220.914 661.508 224.312 656.117 224.312C650.609 224.312 646.547 220.914 646.547 216.227C646.547 211.461 650.609 208.102 656.117 208.102ZM656.117 212.164C653.383 212.164 651.352 213.648 651.391 216.227C651.352 218.766 653.383 220.289 656.117 220.289C658.812 220.289 660.805 218.766 660.805 216.227C660.805 213.648 658.812 212.164 656.117 212.164ZM675.766 207.047V224.859H670.766V207.047H675.766ZM675.766 226.344V235.992H656.859V238.297H676.742V242.203H651.977V232.359H670.805V230.172H651.898V226.344H675.766ZM695.492 210.211V218.219H700.336V210.211H704.945V234.156H690.805V210.211H695.492ZM695.492 230.172H700.336V222.125H695.492V230.172ZM720.609 207.047V242.594H715.844V224.664H712.641V240.953H707.914V207.555H712.641V220.602H715.844V207.047H720.609ZM740.57 207.359C748.734 207.359 753.461 209.508 753.5 213.453C753.461 217.359 748.734 219.508 740.57 219.508C732.367 219.508 727.602 217.359 727.602 213.453C727.602 209.508 732.367 207.359 740.57 207.359ZM740.57 211.031C735.336 211.031 732.797 211.812 732.836 213.453C732.797 215.172 735.336 215.875 740.57 215.875C745.844 215.875 748.344 215.172 748.344 213.453C748.344 211.812 745.844 211.031 740.57 211.031ZM756.781 221.109V225.016H743.031V227.398H752.836V236.461H733.031V238.609H753.773V242.359H728.148V232.984H747.914V231.031H728.109V227.398H738.031V225.016H724.359V221.109H756.781ZM787.016 209.82C787.016 214 791.273 218.648 799.438 219.664L797.484 223.688C791.273 222.789 786.723 219.918 784.398 216.07C782.055 219.918 777.543 222.789 771.391 223.688L769.398 219.664C777.484 218.648 781.781 214 781.781 209.82V208.102H787.016V209.82ZM800.57 226.383V230.445H786.742V242.594H781.82V230.445H768.148V226.383H800.57ZM824.867 229.859C824.867 232.73 826.059 235.68 828.969 237.633C831.898 235.562 833.188 232.496 833.188 229.859V228.648H838.109V229.859C838.07 233.57 840.062 237.008 844.789 238.453L842.367 242.086C838.969 240.934 836.742 238.766 835.531 236.031C834.34 238.766 832.27 241.148 829.086 242.398C825.727 241.188 823.637 238.883 822.484 236.148C821.234 238.805 819.047 240.953 815.805 242.086L813.344 238.453C818.031 236.852 819.984 233.336 820.023 229.859V228.648H824.867V229.859ZM841.703 207.086V227.164H836.703V207.086H841.703ZM822.211 208.883C827.758 208.883 831.938 212.398 831.938 217.438C831.938 222.398 827.758 225.914 822.211 225.914C816.664 225.914 812.484 222.398 812.484 217.438C812.484 212.398 816.664 208.883 822.211 208.883ZM822.211 213.062C819.359 213.062 817.328 214.703 817.367 217.438C817.328 220.133 819.359 221.773 822.211 221.773C824.984 221.773 827.016 220.133 827.016 217.438C827.016 214.703 824.984 213.062 822.211 213.062ZM856.312 209.547C861.117 209.547 864.691 213.512 865.414 219.898H871.586V207.047H876.508V242.672H871.586V223.883H865.453C864.926 230.719 861.273 234.898 856.312 234.898C850.922 234.898 847.055 230.016 847.094 222.203C847.055 214.469 850.922 209.547 856.312 209.547ZM856.312 214.039C853.656 214.039 851.82 216.93 851.859 222.203C851.82 227.516 853.656 230.367 856.312 230.367C859.008 230.367 860.766 227.516 860.766 222.203C860.766 216.93 859.008 214.039 856.312 214.039ZM913.617 234.352V238.453H881.078V234.352H888.344V225.641C885.59 224 883.93 221.48 883.93 218.336C883.93 212.594 889.555 208.766 897.289 208.766C904.984 208.766 910.648 212.594 910.688 218.336C910.668 221.402 909.047 223.902 906.391 225.562V234.352H913.617ZM897.289 212.711C892.211 212.711 888.852 214.742 888.852 218.336C888.852 221.812 892.211 223.961 897.289 223.961C902.328 223.961 905.727 221.812 905.766 218.336C905.727 214.742 902.328 212.711 897.289 212.711ZM893.266 234.352H901.352V227.438C900.082 227.691 898.715 227.828 897.289 227.828C895.863 227.828 894.516 227.711 893.266 227.438V234.352Z" fill="white"/>
<path d="M443.43 186H430.979V150.648H443.576C454.221 150.648 460.715 157.289 460.715 168.275C460.715 179.359 454.221 186 443.43 186ZM438.303 179.701H443.137C449.875 179.701 453.391 176.186 453.391 168.275C453.391 160.414 449.875 156.947 443.186 156.947H438.303V179.701ZM467.443 186H459.533L471.789 150.648H481.213L493.42 186H485.559L482.922 177.846H470.129L467.443 186ZM471.984 172.133H481.066L476.623 158.607H476.379L471.984 172.133ZM489.162 150.648H497.414L505.568 165.883H505.91L514.016 150.648H522.268L509.377 173.402V186H502.053V173.402L489.162 150.648Z" fill="white"/>
<path d="M331.979 150.648H341.061L350.875 174.623H351.266L361.08 150.648H370.162V186H363.033V162.855H362.74L353.512 185.854H348.629L339.4 162.758H339.107V186H331.979V150.648ZM405.992 168.324C405.992 179.848 398.814 186.488 389.488 186.488C380.064 186.488 372.936 179.799 372.936 168.324C372.936 156.801 380.064 150.16 389.488 150.16C398.814 150.16 405.992 156.801 405.992 168.324ZM398.521 168.324C398.521 160.756 394.957 156.654 389.488 156.654C384.02 156.654 380.406 160.756 380.406 168.324C380.406 175.893 384.02 179.994 389.488 179.994C394.957 179.994 398.521 175.893 398.521 168.324ZM438.258 150.648V186H431.91L416.383 163.539H416.09V186H408.766V150.648H415.211L430.641 173.109H430.982V150.648H438.258Z" fill="#A0E8AF"/>
<circle cx="194" cy="394" r="50" fill="white"/>
<circle cx="445" cy="394" r="50" fill="white"/>
<circle cx="696" cy="394" r="50" fill="white"/>
<path d="M997 394C997 421.614 974.614 444 947 444C919.386 444 897 421.614 897 394C897 366.386 919.386 344 947 344C974.614 344 997 366.386 997 394Z" fill="white"/>
<path d="M137.787 493.789H143.236L149.125 508.174H149.359L155.248 493.789H160.697V515H156.42V501.113H156.244L150.707 514.912H147.777L142.24 501.055H142.064V515H137.787V493.789ZM182.495 504.395C182.495 511.309 178.189 515.293 172.593 515.293C166.939 515.293 162.661 511.279 162.661 504.395C162.661 497.48 166.939 493.496 172.593 493.496C178.189 493.496 182.495 497.48 182.495 504.395ZM178.013 504.395C178.013 499.854 175.874 497.393 172.593 497.393C169.312 497.393 167.144 499.854 167.144 504.395C167.144 508.936 169.312 511.396 172.593 511.396C175.874 511.396 178.013 508.936 178.013 504.395ZM202.155 493.789V515H198.346L189.03 501.523H188.854V515H184.459V493.789H188.327L197.584 507.266H197.789V493.789H202.155Z" fill="#A0E8AF"/>
<path d="M225.154 499.443V502.432H206.492V492.236H210.213V499.443H225.154ZM227.849 505.449V508.438H222.283V517.695H218.504V508.438H212.908V517.695H209.158V508.438H203.533V505.449H227.849ZM242.294 494.551C242.294 498.447 245.751 502.637 251.786 503.662L250.145 506.768C245.502 505.845 242.045 503.237 240.331 499.795C238.558 503.208 235.101 505.83 230.487 506.768L228.876 503.662C234.794 502.607 238.28 498.418 238.309 494.551V492.617H242.294V494.551ZM252.665 511.338V514.414H228.261V511.338H252.665Z" fill="white"/>
<path d="M390.787 492.789H396.236L402.125 507.174H402.359L408.248 492.789H413.697V514H409.42V500.113H409.244L403.707 513.912H400.777L395.24 500.055H395.064V514H390.787V492.789ZM435.495 503.395C435.495 510.309 431.189 514.293 425.593 514.293C419.939 514.293 415.661 510.279 415.661 503.395C415.661 496.48 419.939 492.496 425.593 492.496C431.189 492.496 435.495 496.48 435.495 503.395ZM431.013 503.395C431.013 498.854 428.874 496.393 425.593 496.393C422.312 496.393 420.144 498.854 420.144 503.395C420.144 507.936 422.312 510.396 425.593 510.396C428.874 510.396 431.013 507.936 431.013 503.395ZM455.155 492.789V514H451.346L442.03 500.523H441.854V514H437.459V492.789H441.327L450.584 506.266H450.789V492.789H455.155Z" fill="#A0E8AF"/>
<path d="M477.685 490.035V497.301H481.289V500.377H477.685V509.312H473.935V490.035H477.685ZM469.599 492.174V495.162H461.308V501.9C466.128 501.871 468.779 501.725 471.767 501.08L472.148 504.068C468.808 504.771 465.732 504.918 459.814 504.918H457.558V492.174H469.599ZM478.652 513.238V516.227H460.4V507.262H464.121V513.238H478.652ZM488.614 491.91C492.218 491.91 494.898 494.884 495.44 499.674H500.069V490.035H503.761V516.754H500.069V502.662H495.47C495.074 507.789 492.335 510.924 488.614 510.924C484.571 510.924 481.671 507.262 481.7 501.402C481.671 495.602 484.571 491.91 488.614 491.91ZM488.614 495.279C486.622 495.279 485.245 497.447 485.274 501.402C485.245 505.387 486.622 507.525 488.614 507.525C490.636 507.525 491.954 505.387 491.954 501.402C491.954 497.447 490.636 495.279 488.614 495.279Z" fill="white"/>
<path d="M634.787 492.789H640.236L646.125 507.174H646.359L652.248 492.789H657.697V514H653.42V500.113H653.244L647.707 513.912H644.777L639.24 500.055H639.064V514H634.787V492.789ZM679.495 503.395C679.495 510.309 675.189 514.293 669.593 514.293C663.939 514.293 659.661 510.279 659.661 503.395C659.661 496.48 663.939 492.496 669.593 492.496C675.189 492.496 679.495 496.48 679.495 503.395ZM675.013 503.395C675.013 498.854 672.874 496.393 669.593 496.393C666.312 496.393 664.144 498.854 664.144 503.395C664.144 507.936 666.312 510.396 669.593 510.396C672.874 510.396 675.013 507.936 675.013 503.395ZM699.155 492.789V514H695.346L686.03 500.523H685.854V514H681.459V492.789H685.327L694.584 506.266H694.789V492.789H699.155Z" fill="#A0E8AF"/>
<path d="M716.089 491.764V493.404C716.06 495.587 716.06 498.546 715.269 502.809C716.221 502.75 717.159 502.677 718.082 502.574L718.345 505.328C715.884 505.68 713.379 505.899 710.904 506.031V515.23H707.154V506.207C704.942 506.28 702.818 506.295 700.826 506.295L700.357 503.277C703.741 503.263 707.623 503.233 711.519 503.043C711.754 501.886 711.929 500.802 712.076 499.791L702.437 500.641L701.939 497.564L712.339 497.125C712.383 496.246 712.413 495.47 712.427 494.752H702.584V491.764H716.089ZM723.384 490.035V516.695H719.605V490.035H723.384ZM749.665 510.426V513.473H725.261V510.426H749.665ZM739.382 495.309C739.382 499.029 742.721 502.545 748.757 503.453L747.292 506.412C742.619 505.592 739.162 503.307 737.448 500.143C735.749 503.365 732.321 505.738 727.721 506.559L726.257 503.57C732.087 502.662 735.456 499.029 735.456 495.309V495.279H727.282V492.291H747.526V495.279H739.382V495.309Z" fill="white"/>
<path d="M880.225 492.789H885.674L891.562 507.174H891.797L897.686 492.789H903.135V514H898.857V500.113H898.682L893.145 513.912H890.215L884.678 500.055H884.502V514H880.225V492.789ZM924.933 503.395C924.933 510.309 920.626 514.293 915.03 514.293C909.376 514.293 905.099 510.279 905.099 503.395C905.099 496.48 909.376 492.496 915.03 492.496C920.626 492.496 924.933 496.48 924.933 503.395ZM920.45 503.395C920.45 498.854 918.312 496.393 915.03 496.393C911.749 496.393 909.581 498.854 909.581 503.395C909.581 507.936 911.749 510.396 915.03 510.396C918.312 510.396 920.45 507.936 920.45 503.395ZM944.592 492.789V514H940.784L931.467 500.523H931.291V514H926.897V492.789H930.764L940.022 506.266H940.227V492.789H944.592Z" fill="#A0E8AF"/>
<path d="M956.341 496.07C956.341 500.963 958.568 505.885 963.08 507.789L960.882 510.777C957.836 509.4 955.726 506.749 954.525 503.453C953.309 507.042 951.127 509.942 947.875 511.422L945.619 508.316C950.277 506.354 952.533 501.256 952.562 496.07V492.086H956.341V496.07ZM968.295 490.035V516.754H964.515V490.035H968.295ZM993.052 490.035V516.754H989.331V490.035H993.052ZM984.79 492.262V502.545H976.001V507.438C980.058 507.423 983.515 507.188 987.427 506.559L987.749 509.576C983.354 510.338 979.399 510.514 974.536 510.514H972.134V499.586H980.981V495.279H972.104V492.262H984.79ZM1019.83 510.426V513.473H995.426V510.426H1019.83ZM1009.55 495.309C1009.55 499.029 1012.89 502.545 1018.92 503.453L1017.46 506.412C1012.78 505.592 1009.33 503.307 1007.61 500.143C1005.91 503.365 1002.49 505.738 997.887 506.559L996.422 503.57C1002.25 502.662 1005.62 499.029 1005.62 495.309V495.279H997.447V492.291H1017.69V495.279H1009.55V495.309Z" fill="white"/>
<path d="M138.414 545.082V552.113H141.129V553.91H138.414V562.738H136.266V545.082H138.414ZM134.898 547.797V549.535H124.488V547.797H128.668V545.336H130.836V547.797H134.898ZM129.762 550.688C132.301 550.688 134.195 552.406 134.195 554.848C134.195 557.289 132.301 558.988 129.762 558.988C127.184 558.988 125.289 557.289 125.309 554.848C125.289 552.406 127.184 550.688 129.762 550.688ZM129.762 552.465C128.375 552.465 127.379 553.402 127.379 554.848C127.379 556.293 128.375 557.211 129.762 557.191C131.109 557.211 132.105 556.293 132.125 554.848C132.105 553.402 131.109 552.465 129.762 552.465ZM155.309 545.688V550.707H145.173V552.465H155.7V554.203H142.985V549.066H153.083V547.445H142.946V545.688H155.309ZM157.184 555.707V557.445H150.173V562.758H148.005V557.445H141.052V555.707H157.184ZM176.287 545.102V555.414H174.12V553.461H169.92V551.703H174.12V549.809H170.096C168.973 552.621 166.405 554.584 162.557 555.648L161.678 553.93C165.809 552.807 168.006 550.717 168.358 548.09H162.616V546.332H170.721C170.721 546.947 170.672 547.533 170.565 548.09H174.12V545.102H176.287ZM170.448 555.609C174.022 555.609 176.405 556.957 176.405 559.125C176.405 561.293 174.022 562.641 170.448 562.641C166.834 562.641 164.452 561.293 164.452 559.125C164.452 556.957 166.834 555.609 170.448 555.609ZM170.448 557.309C168.065 557.309 166.62 557.953 166.62 559.125C166.62 560.277 168.065 560.922 170.448 560.922C172.772 560.922 174.237 560.277 174.237 559.125C174.237 557.953 172.772 557.309 170.448 557.309ZM193.183 545.082V562.738H191.112V545.082H193.183ZM189.589 545.414V561.879H187.538V552.992H184.999V551.234H187.538V545.414H189.589ZM183.437 549.906C183.437 552.895 184.511 555.883 187.03 557.328L185.741 558.93C184.111 557.953 183.027 556.273 182.421 554.262C181.796 556.439 180.673 558.295 179.003 559.34L177.675 557.719C180.234 556.176 181.347 552.973 181.347 549.906V548.734H178.28V546.977H186.288V548.734H183.437V549.906ZM208.73 550.785V552.543H196.465V545.922H198.633V550.785H208.73ZM210.566 554.711V556.469H206.699V562.738H204.512V556.469H200.527V562.738H198.359V556.469H194.473V554.711H210.566ZM220.079 547.504C220.079 550.238 222.755 552.973 226.446 553.617L225.47 555.434C222.511 554.809 220.089 553.021 218.946 550.648C217.774 553.002 215.352 554.799 212.403 555.434L211.446 553.617C215.098 552.953 217.755 550.219 217.774 547.504V546.195H220.079V547.504ZM227.091 558.695V560.492H210.958V558.695H227.091ZM237.717 546.859V561H235.159V549.34H235.08L231.78 551.449V549.125L235.276 546.859H237.717ZM254.925 545.082V562.738H252.835V553.676H250.941V561.918H248.909V545.551H250.941V551.918H252.835V545.082H254.925ZM247.405 547.309C247.405 552.074 245.902 556.176 240.882 559.047L239.632 557.543C243.392 555.365 244.984 552.572 245.296 549.047H240.452V547.309H247.405Z" fill="white"/>
<path d="M393.598 544.082V551.113H396.313V552.91H393.598V561.738H391.45V544.082H393.598ZM390.082 546.797V548.535H379.672V546.797H383.852V544.336H386.02V546.797H390.082ZM384.946 549.688C387.485 549.688 389.379 551.406 389.379 553.848C389.379 556.289 387.485 557.988 384.946 557.988C382.368 557.988 380.473 556.289 380.493 553.848C380.473 551.406 382.368 549.688 384.946 549.688ZM384.946 551.465C383.559 551.465 382.563 552.402 382.563 553.848C382.563 555.293 383.559 556.211 384.946 556.191C386.293 556.211 387.289 555.293 387.309 553.848C387.289 552.402 386.293 551.465 384.946 551.465ZM410.493 544.688V549.707H400.357V551.465H410.884V553.203H398.169V548.066H408.267V546.445H398.13V544.688H410.493ZM412.368 554.707V556.445H405.357V561.758H403.189V556.445H396.236V554.707H412.368ZM431.471 544.102V554.414H429.304V552.461H425.104V550.703H429.304V548.809H425.28C424.157 551.621 421.589 553.584 417.741 554.648L416.862 552.93C420.993 551.807 423.19 549.717 423.542 547.09H417.8V545.332H425.905C425.905 545.947 425.856 546.533 425.749 547.09H429.304V544.102H431.471ZM425.632 554.609C429.206 554.609 431.589 555.957 431.589 558.125C431.589 560.293 429.206 561.641 425.632 561.641C422.018 561.641 419.636 560.293 419.636 558.125C419.636 555.957 422.018 554.609 425.632 554.609ZM425.632 556.309C423.249 556.309 421.804 556.953 421.804 558.125C421.804 559.277 423.249 559.922 425.632 559.922C427.956 559.922 429.421 559.277 429.421 558.125C429.421 556.953 427.956 556.309 425.632 556.309ZM448.367 544.082V561.738H446.296V544.082H448.367ZM444.773 544.414V560.879H442.722V551.992H440.183V550.234H442.722V544.414H444.773ZM438.621 548.906C438.621 551.895 439.695 554.883 442.214 556.328L440.925 557.93C439.295 556.953 438.211 555.273 437.605 553.262C436.98 555.439 435.857 557.295 434.187 558.34L432.859 556.719C435.418 555.176 436.531 551.973 436.531 548.906V547.734H433.464V545.977H441.472V547.734H438.621V548.906ZM463.582 544.082V549.043H466.063V550.84H463.582V556.855H461.414V544.082H463.582ZM458.309 545.547V547.285H452.547V552.09C455.868 552.1 457.713 551.982 459.813 551.543L460.047 553.301C457.743 553.75 455.672 553.867 451.825 553.867H450.399V545.547H458.309ZM464.286 559.629V561.387H452.274V555.508H454.442V559.629H464.286ZM470.966 545.371C473.359 545.371 475.126 547.363 475.439 550.586H478.798V544.082H480.946V561.758H478.798V552.344H475.458C475.224 555.752 473.427 557.852 470.966 557.852C468.31 557.852 466.435 555.449 466.435 551.602C466.435 547.793 468.31 545.371 470.966 545.371ZM470.966 547.324C469.501 547.324 468.505 548.906 468.525 551.602C468.505 554.316 469.501 555.898 470.966 555.898C472.431 555.898 473.407 554.316 473.427 551.602C473.407 548.906 472.431 547.324 470.966 547.324ZM492.179 560.195C489.346 560.195 487.276 558.516 487.198 556.172H489.679C489.757 557.324 490.831 558.145 492.179 558.145C493.761 558.145 494.893 556.992 494.893 555.43C494.893 553.809 493.721 552.656 492.1 552.656C491.007 552.637 490.206 553.027 489.757 553.867H487.393L488.253 545.859H496.612V547.988H490.343L489.913 551.738H490.05C490.596 551.113 491.632 550.664 492.784 550.664C495.421 550.664 497.354 552.637 497.354 555.352C497.354 558.184 495.225 560.195 492.179 560.195ZM513.273 544.082V561.738H511.183V552.676H509.289V560.918H507.257V544.551H509.289V550.918H511.183V544.082H513.273ZM505.754 546.309C505.754 551.074 504.25 555.176 499.23 558.047L497.98 556.543C501.74 554.365 503.332 551.572 503.644 548.047H498.8V546.309H505.754Z" fill="white"/>
<path d="M664.799 544.082V551.113H667.514V552.91H664.799V561.738H662.65V544.082H664.799ZM661.283 546.797V548.535H650.873V546.797H655.053V544.336H657.221V546.797H661.283ZM656.146 549.688C658.686 549.688 660.58 551.406 660.58 553.848C660.58 556.289 658.686 557.988 656.146 557.988C653.568 557.988 651.674 556.289 651.693 553.848C651.674 551.406 653.568 549.688 656.146 549.688ZM656.146 551.465C654.76 551.465 653.764 552.402 653.764 553.848C653.764 555.293 654.76 556.211 656.146 556.191C657.494 556.211 658.49 555.293 658.51 553.848C658.49 552.402 657.494 551.465 656.146 551.465ZM681.694 544.688V549.707H671.557V551.465H682.085V553.203H669.37V548.066H679.468V546.445H669.331V544.688H681.694ZM683.569 554.707V556.445H676.557V561.758H674.389V556.445H667.436V554.707H683.569ZM693.493 560.195C690.661 560.195 688.59 558.516 688.512 556.172H690.993C691.071 557.324 692.145 558.145 693.493 558.145C695.075 558.145 696.207 556.992 696.207 555.43C696.207 553.809 695.036 552.656 693.414 552.656C692.321 552.637 691.52 553.027 691.071 553.867H688.707L689.567 545.859H697.926V547.988H691.657L691.227 551.738H691.364C691.911 551.113 692.946 550.664 694.098 550.664C696.735 550.664 698.668 552.637 698.668 555.352C698.668 558.184 696.539 560.195 693.493 560.195ZM715.544 552.91V554.648H708.728V557.891H706.579V554.648H699.411V552.91H715.544ZM713.474 544.883V551.27H701.462V544.883H713.474ZM703.571 546.582V549.57H711.325V546.582H703.571ZM713.767 559.629V561.387H701.364V556.27H703.532V559.629H713.767ZM731.111 544.082V561.738H729.041V544.082H731.111ZM727.518 544.414V560.879H725.467V551.992H722.928V550.234H725.467V544.414H727.518ZM721.365 548.906C721.365 551.895 722.439 554.883 724.959 556.328L723.67 557.93C722.039 556.953 720.955 555.273 720.35 553.262C719.725 555.439 718.602 557.295 716.932 558.34L715.604 556.719C718.162 555.176 719.275 551.973 719.275 548.906V547.734H716.209V545.977H724.217V547.734H721.365V548.906Z" fill="white"/>
<path d="M175.945 394H957.054" stroke="white" stroke-width="2"/>
<path d="M184.442 405.007L199.214 407.612M185.745 397.621L200.517 400.226M200.369 372.278C200.134 372.234 199.869 372.188 199.567 372.134L188.551 370.192C185.793 369.706 184.413 369.462 183.265 369.813C182.256 370.122 181.37 370.742 180.735 371.585C180.012 372.544 179.769 373.924 179.283 376.682L174.247 405.241C173.761 407.999 173.518 409.377 173.869 410.525C174.177 411.535 174.797 412.421 175.64 413.057C176.598 413.779 177.976 414.022 180.729 414.507L199.455 417.809C202.207 418.294 203.584 418.537 204.731 418.186C205.74 417.878 206.628 417.257 207.264 416.413C207.986 415.456 208.228 414.079 208.714 411.327L212.394 390.454C212.447 390.152 212.494 389.888 212.533 389.652M200.369 372.278C201.07 372.408 201.509 372.513 201.915 372.689C202.396 372.899 202.843 373.182 203.236 373.53C203.679 373.922 204.03 374.424 204.731 375.425L211.069 384.477C211.771 385.479 212.119 385.978 212.336 386.528C212.529 387.017 212.644 387.532 212.676 388.056C212.703 388.499 212.651 388.948 212.533 389.652M200.369 372.278L199.152 379.17C198.666 381.928 198.423 383.306 198.774 384.454C199.083 385.464 199.703 386.35 200.546 386.986C201.504 387.707 202.882 387.95 205.634 388.436L212.533 389.652" stroke="#1C376B" stroke-width="3" stroke-linecap="round" stroke-linejoin="round"/>
<path fill-rule="evenodd" clip-rule="evenodd" d="M373.97 104.807C359.002 111.922 351.518 120.282 351.518 129.887C357.898 130.599 363.173 133.119 367.345 137.447C371.517 141.775 373.602 146.785 373.602 152.477C373.602 158.525 371.578 163.624 367.529 167.774C363.48 171.925 358.388 174 352.254 174C345.383 174 339.432 171.302 334.402 165.907C329.371 160.511 326.856 153.96 326.856 146.252C326.856 123.128 340.23 105.044 366.977 92L373.97 104.807ZM321.145 104.807C306.054 111.922 298.509 120.282 298.509 129.887C305.011 130.599 310.348 133.119 314.52 137.447C318.692 141.775 320.777 146.785 320.777 152.477C320.777 158.525 318.722 163.624 314.612 167.774C310.502 171.925 305.379 174 299.245 174C292.374 174 286.454 171.302 281.485 165.907C276.516 160.511 274.031 153.96 274.031 146.252C274.031 123.128 287.343 105.044 313.968 92L321.145 104.807Z" fill="#A0E8AF" fill-opacity="0.2"/>
<path d="M673.5 401.501V406C673.5 408.8 673.5 410.199 674.045 411.269C674.524 412.21 675.289 412.976 676.229 413.456C677.298 414 678.697 414 681.492 414H718.5M673.5 401.501V376.5M673.5 401.501L683.133 393.473L683.141 393.466C684.884 392.014 685.757 391.286 686.704 390.991C687.822 390.642 689.027 390.697 690.109 391.146C691.026 391.527 691.831 392.331 693.439 393.94L693.456 393.956C695.089 395.59 695.908 396.409 696.84 396.788C697.943 397.238 699.171 397.276 700.302 396.901C701.26 396.584 702.136 395.819 703.886 394.287L718.5 381.5" stroke="#1C376B" stroke-width="3" stroke-linecap="round" stroke-linejoin="round"/>
<path d="M939.5 379H940.342C940.954 379 941.26 379 941.547 379.069C941.802 379.13 942.047 379.232 942.271 379.369C942.523 379.523 942.74 379.74 943.172 380.172L950.829 387.829C951.261 388.261 951.476 388.476 951.631 388.728C951.768 388.952 951.87 389.197 951.932 389.452C952 389.736 952 390.039 952 390.638V409M939.5 379H928.499C927.099 379 926.4 379 925.865 379.272C925.394 379.512 925.012 379.894 924.772 380.365C924.5 380.9 924.5 381.6 924.5 383V412.5C924.5 413.9 924.5 414.599 924.772 415.134C925.012 415.605 925.394 415.988 925.865 416.228C926.399 416.5 927.098 416.5 928.495 416.5L948.003 416.5C949.4 416.5 950.101 416.5 950.635 416.228C951.106 415.988 951.487 415.605 951.727 415.135C951.999 414.6 952 413.9 952 412.5V409M939.5 379V387.5C939.5 388.9 939.5 389.6 939.772 390.134C940.012 390.605 940.394 390.988 940.865 391.228C941.399 391.5 942.098 391.5 943.495 391.5H951.999M942 379V375.5C942 374.1 942 373.4 942.272 372.865C942.512 372.394 942.894 372.012 943.365 371.772C943.9 371.5 944.599 371.5 945.999 371.5H957M957 371.5H957.842C958.454 371.5 958.76 371.5 959.047 371.569C959.302 371.63 959.547 371.732 959.771 371.869C960.023 372.023 960.24 372.24 960.672 372.672L968.329 380.329C968.761 380.761 968.976 380.976 969.131 381.228C969.268 381.452 969.37 381.697 969.432 381.952C969.5 382.236 969.5 382.539 969.5 383.138V405C969.5 406.4 969.499 407.1 969.227 407.635C968.987 408.105 968.607 408.488 968.137 408.728C967.603 409 966.902 409 965.505 409H952M957 371.5V380C957 381.4 957 382.1 957.272 382.634C957.512 383.105 957.894 383.488 958.365 383.728C958.899 384 959.598 384 960.995 384H969.499" stroke="#1C376B" stroke-width="3" stroke-linecap="round" stroke-linejoin="round"/>
<path d="M433.889 384.662H456.111M433.889 392.995H456.111M433.889 401.329H442.222M470 392.995C470.001 397.471 468.8 401.865 466.523 405.718C464.246 409.571 460.977 412.742 457.056 414.901C453.136 417.059 448.707 418.125 444.234 417.988C439.761 417.851 435.406 416.516 431.625 414.121L420 417.996L423.875 406.371C421.802 403.094 420.519 399.38 420.127 395.523C419.736 391.665 420.248 387.769 421.622 384.143C422.995 380.517 425.194 377.26 428.043 374.63C430.892 372 434.314 370.069 438.037 368.989C441.761 367.909 445.685 367.71 449.5 368.408C453.314 369.106 456.913 370.682 460.013 373.01C463.114 375.339 465.63 378.357 467.363 381.825C469.096 385.294 469.999 389.118 470 392.995Z" stroke="#1C376B" stroke-width="3" stroke-linecap="round" stroke-linejoin="round"/>
</g>
<defs>
<clipPath id="clip0_648_1392">
<rect width="744" height="1133" fill="white" transform="matrix(0 1 -1 0 1133 0)"/>
</clipPath>
</defs>
</svg>
