<svg width="293" height="212" viewBox="0 0 293 212" fill="none" xmlns="http://www.w3.org/2000/svg">
<mask id="path-1-inside-1_2415_20" fill="white">
<path d="M113.406 0C128.41 0.000125708 141.525 10.1218 145.328 24.6357L149.092 39H273C284.046 39 293 47.9543 293 59V192C293 203.046 284.046 212 273 212H20C8.95431 212 0 203.046 0 192V20C1.27183e-06 8.95431 8.95431 0 20 0H113.406Z"/>
</mask>
<path d="M113.406 0C128.41 0.000125708 141.525 10.1218 145.328 24.6357L149.092 39H273C284.046 39 293 47.9543 293 59V192C293 203.046 284.046 212 273 212H20C8.95431 212 0 203.046 0 192V20C1.27183e-06 8.95431 8.95431 0 20 0H113.406Z" fill="#FFF2C0"/>
<path d="M113.406 0L113.406 -3H113.406V0ZM145.328 24.6357L148.23 23.8754L148.23 23.8754L145.328 24.6357ZM149.092 39L146.19 39.7604L146.777 42H149.092V39ZM293 192L296 192V192H293ZM273 212L273 215H273L273 212ZM0 20L-3 20V20H0ZM113.406 0L113.406 3C127.046 3.00011 138.969 12.2016 142.426 25.3961L145.328 24.6357L148.23 23.8754C144.082 8.04203 129.774 -2.99986 113.406 -3L113.406 0ZM145.328 24.6357L142.426 25.3961L146.19 39.7604L149.092 39L151.994 38.2396L148.23 23.8754L145.328 24.6357ZM149.092 39V42H273V39V36H149.092V39ZM273 39V42C282.389 42 290 49.6112 290 59H293H296C296 46.2975 285.703 36 273 36V39ZM293 59H290V192H293H296V59H293ZM293 192L290 192C290 201.389 282.389 209 273 209L273 212L273 215C285.703 215 296 204.703 296 192L293 192ZM273 212V209H20V212V215H273V212ZM20 212V209C10.6112 209 3 201.389 3 192H0H-3C-3 204.703 7.29745 215 20 215V212ZM0 192H3V20H0H-3V192H0ZM0 20L3 20C3 10.6112 10.6112 3 20 3V0V-3C7.29745 -3 -3 7.29745 -3 20L0 20ZM20 0V3H113.406V0V-3H20V0Z" fill="black" mask="url(#path-1-inside-1_2415_20)"/>
<rect x="1.5" y="81.5" width="290" height="129" rx="8.5" fill="#C2ECFF" stroke="black" stroke-width="3"/>
</svg>
