<svg width="314" height="274" viewBox="0 0 314 274" fill="none" xmlns="http://www.w3.org/2000/svg">
<g filter="url(#filter0_d_2418_43)">
<mask id="path-1-inside-1_2418_43" fill="white">
<path d="M175 5C186.046 5 195 13.9543 195 25V38H285C296.046 38 305 46.9543 305 58V245C305 256.046 296.046 265 285 265H25C13.9543 265 5 256.046 5 245V25C5 13.9543 13.9543 5 25 5H175Z"/>
</mask>
<path d="M175 5C186.046 5 195 13.9543 195 25V38H285C296.046 38 305 46.9543 305 58V245C305 256.046 296.046 265 285 265H25C13.9543 265 5 256.046 5 245V25C5 13.9543 13.9543 5 25 5H175Z" fill="#FFF2C0"/>
<path d="M195 38H194V39H195V38ZM305 245L306 245V245H305ZM285 265L285 266H285L285 265ZM175 5V6C185.493 6 194 14.5066 194 25H195H196C196 13.402 186.598 4 175 4V5ZM195 25H194V38H195H196V25H195ZM195 38V39H285V38V37H195V38ZM285 38V39C295.493 39 304 47.5066 304 58H305H306C306 46.402 296.598 37 285 37V38ZM305 58H304V245H305H306V58H305ZM305 245L304 245C304 255.493 295.493 264 285 264L285 265L285 266C296.598 266 306 256.598 306 245L305 245ZM285 265V264H25V265V266H285V265ZM25 265V264C14.5066 264 6 255.493 6 245H5H4C4 256.598 13.402 266 25 266V265ZM5 245H6V25H5H4V245H5ZM5 25H6C6 14.5066 14.5066 6 25 6V5V4C13.402 4 4 13.402 4 25H5ZM25 5V6H175V5V4H25V5Z" fill="#9E9E9E" mask="url(#path-1-inside-1_2418_43)"/>
</g>
<defs>
<filter id="filter0_d_2418_43" x="0" y="0" width="314" height="274" filterUnits="userSpaceOnUse" color-interpolation-filters="sRGB">
<feFlood flood-opacity="0" result="BackgroundImageFix"/>
<feColorMatrix in="SourceAlpha" type="matrix" values="0 0 0 0 0 0 0 0 0 0 0 0 0 0 0 0 0 0 127 0" result="hardAlpha"/>
<feOffset dx="2" dy="2"/>
<feGaussianBlur stdDeviation="3.5"/>
<feComposite in2="hardAlpha" operator="out"/>
<feColorMatrix type="matrix" values="0 0 0 0 0 0 0 0 0 0 0 0 0 0 0 0 0 0 0.25 0"/>
<feBlend mode="normal" in2="BackgroundImageFix" result="effect1_dropShadow_2418_43"/>
<feBlend mode="normal" in="SourceGraphic" in2="effect1_dropShadow_2418_43" result="shape"/>
</filter>
</defs>
</svg>
